<svg width="544" height="544" viewBox="0 0 544 544" fill="none" xmlns="http://www.w3.org/2000/svg">
<g clip-path="url(#clip0_305_182)">
<path d="M272 544C422.221 544 544 422.221 544 272C544 121.779 422.221 0 272 0C121.779 0 0 121.779 0 272C0 422.221 121.779 544 272 544Z" fill="#262421"/>
<path d="M399.749 493.272C362.167 515.014 318.539 527.463 271.999 527.463C225.46 527.463 181.831 515.014 144.25 493.272L233.366 338.912C244.727 345.495 257.928 349.257 271.999 349.257C286.071 349.257 299.272 345.495 310.632 338.912L399.749 493.272Z" fill="#0A0A0A"/>
<path d="M527.462 272H349.257C349.257 243.404 333.726 218.443 310.633 205.088L399.749 50.728C476.099 94.9008 527.462 177.453 527.462 272Z" fill="#0A0A0A"/>
<path d="M233.366 205.088C210.274 218.443 194.742 243.404 194.742 272H16.5371C16.5371 177.453 67.8998 94.9008 144.25 50.728L233.366 205.088Z" fill="#0A0A0A"/>
<path d="M327.334 272C327.334 292.482 316.209 310.361 299.671 319.927C291.539 324.641 282.082 327.334 272 327.334C261.918 327.334 252.47 324.641 244.328 319.927C227.791 310.361 216.666 292.482 216.666 272C216.666 251.519 227.791 233.639 244.328 224.074C252.461 219.359 261.918 216.666 272 216.666C282.082 216.666 291.529 219.359 299.671 224.074C316.209 233.639 327.334 251.519 327.334 272Z" fill="#0A0A0A"/>
</g>
<defs>
<clipPath id="clip0_305_182">
<rect width="544" height="544" fill="white"/>
</clipPath>
</defs>
</svg>
