<svg width="38" height="26" viewBox="0 0 38 26" fill="none" xmlns="http://www.w3.org/2000/svg">
<g clip-path="url(#clip0_173_1056)">
<path d="M37.9195 15.4401L37.0144 14.5313L37.0099 14.5359L35.1907 12.7092L37.9014 9.98747L36.9963 9.0787L35.0459 7.12029L37.7566 4.39852L36.8515 3.48975L33.2402 7.12029L36.0958 9.98747L34.2856 11.8005L33.385 12.7092L34.2856 13.6135L36.1094 15.4447L34.3037 17.2531L33.4031 18.1619L34.3037 19.0661L37.0144 21.7879L37.9195 20.8791L35.2088 18.1619L37.9195 15.4401Z" fill="#FDFDFD" stroke="#FDFDFD" stroke-width="0.25" stroke-miterlimit="10"/>
<path d="M0.0820312 15.4401L0.982591 14.5313L0.987117 14.5359L2.81086 12.7092L0.100133 9.98747L1.00069 9.0787L2.95568 7.12029L0.244947 4.39852L1.14551 3.48975L4.76132 7.12029L1.90578 9.98747L3.71142 11.8005L4.61651 12.7092L3.71142 13.6135L1.8922 15.4447L3.69332 17.2531L4.59841 18.1619L3.69332 19.0661L0.982591 21.7879L0.0820312 20.8791L2.79276 18.1619L0.0820312 15.4401Z" fill="#FDFDFD" stroke="#FDFDFD" stroke-width="0.25" stroke-miterlimit="10"/>
<path d="M18.998 0C11.8479 0 6.05078 5.82069 6.05078 13C6.05078 20.1793 11.8479 26 18.998 26C26.1482 26 31.9453 20.1793 31.9453 13C31.9453 5.82069 26.1527 0 18.998 0ZM22.0255 21.3834L18.1744 21.0426L16.7444 13.4726L12.1465 9.83747L15.3822 5.56169H22.6229L25.6051 9.83747L22.0255 21.3834Z" fill="#FDFDFD"/>
</g>
<defs>
<clipPath id="clip0_173_1056">
<rect width="38" height="26" fill="white"/>
</clipPath>
</defs>
</svg>
