<svg width="30" height="26" viewBox="0 0 30 26" fill="none" xmlns="http://www.w3.org/2000/svg">
<g clip-path="url(#clip0_173_1071)">
<path d="M19.5474 10.3643L18.0739 11.7734L18.0816 11.7807L15.1117 14.6209L10.6875 10.3898L9.21403 11.8026L6.0266 14.8473L1.60238 10.6162L0.128906 12.0253L6.0266 17.6656L10.6875 13.2118L13.6344 16.0301L15.1117 17.4429L16.5852 16.0301L19.555 13.1899L22.4982 16.0045L23.9716 17.4137L25.4451 16.0045L29.8693 11.7734L28.3959 10.3643L23.9716 14.5917L19.5474 10.3643Z" fill="#FDFDFD" stroke="#FDFDFD" stroke-width="0.48" stroke-miterlimit="10"/>
<path d="M19.5474 18.5708L18.0739 19.98L18.0816 19.9873L15.1117 22.8275L10.6875 18.6L9.21403 20.0092L6.0266 23.0538L1.60238 18.8263L0.128906 20.2355L6.0266 25.8758L10.6875 21.4183L13.6344 24.2403L15.1117 25.6494L16.5852 24.2403L19.555 21.3964L22.4982 24.2111L23.9716 25.6202L25.4451 24.2111L29.8693 19.98L28.3959 18.5708L23.9716 22.8019L19.5474 18.5708Z" fill="#FDFDFD" stroke="#FDFDFD" stroke-width="0.48" stroke-miterlimit="10"/>
<path d="M5.98242 3.35475V8.03125H7.1696V3.35475H5.98242Z" fill="#FDFDFD" stroke="#FDFDFD" stroke-width="0.29" stroke-miterlimit="10"/>
<path d="M6.57394 0.0766602L4.4668 3.57034H8.68107L6.57394 0.0766602Z" fill="#FDFDFD" stroke="#FDFDFD" stroke-width="0.21" stroke-miterlimit="10"/>
<path d="M23.584 3.35476V8.03125H24.7712V3.35476H23.584Z" fill="#FDFDFD" stroke="#FDFDFD" stroke-width="0.29" stroke-miterlimit="10"/>
<path d="M24.1755 0.0766602L22.0684 3.57034H26.2865L24.1755 0.0766602Z" fill="#FDFDFD" stroke="#FDFDFD" stroke-width="0.21" stroke-miterlimit="10"/>
<path d="M14.7812 3.35475V8.03125H15.9684V3.35475H14.7812Z" fill="#FDFDFD" stroke="#FDFDFD" stroke-width="0.29" stroke-miterlimit="10"/>
<path d="M15.3766 0.0766602L13.2656 3.57034H17.4837L15.3766 0.0766602Z" fill="#FDFDFD" stroke="#FDFDFD" stroke-width="0.21" stroke-miterlimit="10"/>
</g>
<defs>
<clipPath id="clip0_173_1071">
<rect width="30" height="26" fill="white"/>
</clipPath>
</defs>
</svg>
